HIERARCHY
ROOT Hips
{
	OFFSET 0.000000 0.000000 0.000000
	CHANNELS 6 Xposition Yposition Zposition Zrotation Yrotation Xrotation 
	JOINT LHipJoint
	{
		OFFSET 0.000000 0.000000 0.000000
		CHANNELS 3 Zrotation Yrotation Xrotation
		JOINT LeftUpLeg
		{
			OFFSET 1.363060 -1.794630 0.839290
			CHANNELS 3 Zrotation Yrotation Xrotation
			JOINT LeftLeg
			{
				OFFSET 2.448110 -6.726130 0.000000
				CHANNELS 3 Zrotation Yrotation Xrotation
				JOINT LeftFoot
				{
					OFFSET 2.562200 -7.039590 0.000000
					CHANNELS 3 Zrotation Yrotation Xrotation
					JOINT LeftToeBase
					{
						OFFSET 0.157640 -0.433110 2.322550
						CHANNELS 3 Zrotation Yrotation Xrotation
						End Site
						{
							OFFSET 0.000000 0.000000 0.000000
						}
					}
				}
			}
		}
	}
	JOINT RHipJoint
	{
		OFFSET 0.000000 0.000000 0.000000
		CHANNELS 3 Zrotation Yrotation Xrotation
		JOINT RightUpLeg
		{
			OFFSET -1.305520 -1.794630 0.839290
			CHANNELS 3 Zrotation Yrotation Xrotation
			JOINT RightLeg
			{
				OFFSET -2.542530 -6.985550 0.000000
				CHANNELS 3 Zrotation Yrotation Xrotation
				JOINT RightFoot
				{
					OFFSET -2.568260 -7.056230 0.000000
					CHANNELS 3 Zrotation Yrotation Xrotation
					JOINT RightToeBase
					{
						OFFSET -0.164730 -0.452590 2.363150
						CHANNELS 3 Zrotation Yrotation Xrotation
						End Site
						{
							OFFSET 0.000000 0.000000 0.000000
						}
					}
				}
			}
		}
	}
	JOINT LowerBack
	{
		OFFSET 0.000000 0.000000 0.000000
		CHANNELS 3 Zrotation Yrotation Xrotation
		JOINT Spine
		{
			OFFSET 0.028270 2.035590 -0.193380
			CHANNELS 3 Zrotation Yrotation Xrotation
			JOINT Spine1
			{
				OFFSET 0.056720 2.048850 -0.042750
				CHANNELS 3 Zrotation Yrotation Xrotation
				JOINT Neck
				{
					OFFSET 0.000000 0.000000 0.000000
					CHANNELS 3 Zrotation Yrotation Xrotation
					JOINT Neck1
					{
						OFFSET -0.054170 1.746240 0.172020
						CHANNELS 3 Zrotation Yrotation Xrotation
						JOINT Head
						{
							OFFSET 0.104070 1.761360 -0.123970
							CHANNELS 3 Zrotation Yrotation Xrotation
							End Site
							{
								OFFSET 0.000000 0.000000 0.000000
							}
						}
					}
				}
				JOINT LeftShoulder
				{
					OFFSET 0.000000 0.000000 0.000000
					CHANNELS 3 Zrotation Yrotation Xrotation
					JOINT LeftArm
					{
						OFFSET 3.362410 1.200890 -0.311210
						CHANNELS 3 Zrotation Yrotation Xrotation
						JOINT LeftForeArm
						{
							OFFSET 4.983000 -0.000000 -0.000000
							CHANNELS 3 Zrotation Yrotation Xrotation
							JOINT LeftHand
							{
								OFFSET 3.483560 -0.000000 -0.000000
								CHANNELS 3 Zrotation Yrotation Xrotation
								JOINT LeftFingerBase
								{
									OFFSET 0.000000 0.000000 0.000000
									CHANNELS 3 Zrotation Yrotation Xrotation
									JOINT LeftHandIndex1
									{
										OFFSET 0.715260 -0.000000 -0.000000
										CHANNELS 3 Zrotation Yrotation Xrotation
										End Site
										{
											OFFSET 0.000000 0.000000 0.000000
										}
									}
								}
								JOINT LThumb
								{
									OFFSET 0.000000 0.000000 0.000000
									CHANNELS 3 Zrotation Yrotation Xrotation
									End Site
									{
										OFFSET 0.000000 0.000000 0.000000
									}
								}
							}
						}
					}
				}
				JOINT RightShoulder
				{
					OFFSET 0.000000 0.000000 0.000000
					CHANNELS 3 Zrotation Yrotation Xrotation
					JOINT RightArm
					{
						OFFSET -3.136600 1.374050 -0.404650
						CHANNELS 3 Zrotation Yrotation Xrotation
						JOINT RightForeArm
						{
							OFFSET -5.241900 -0.000000 -0.000000
							CHANNELS 3 Zrotation Yrotation Xrotation
							JOINT RightHand
							{
								OFFSET -3.444170 -0.000000 -0.000000
								CHANNELS 3 Zrotation Yrotation Xrotation
								JOINT RightFingerBase
								{
									OFFSET 0.000000 0.000000 0.000000
									CHANNELS 3 Zrotation Yrotation Xrotation
									JOINT RightHandIndex1
									{
										OFFSET -0.622530 -0.000000 -0.000000
										CHANNELS 3 Zrotation Yrotation Xrotation
										End Site
										{
											OFFSET 0.000000 0.000000 0.000000
										}
									}
								}
								JOINT RThumb
								{
									OFFSET 0.000000 0.000000 0.000000
									CHANNELS 3 Zrotation Yrotation Xrotation
									End Site
									{
										OFFSET 0.000000 0.000000 0.000000
									}
								}
							}
						}
					}
				}
			}
		}
	}
}
MOTION
Frames: 9
Frame Time: 0.008333
-11.791840 16.876790 -2.514928 39.129020 86.102649 50.627644 -9.393681 0.723478 2.729614 -14.505453 0.571636 -35.759342 -2.785585 -0.133487 12.724168 0.312557 3.275946 6.483216 1.274300 -0.000000 -21.958800 10.963907 -3.928880 -1.080014 2.627126 -9.775786 -3.780235 0.737423 -2.845396 36.530761 0.369442 7.332879 7.266028 1.704600 -0.000001 -83.258600 -5.443541 -0.614818 -2.635989 -2.146623 -0.395891 -3.696315 -7.881435 -0.567207 -0.254238 12.030399 -1.810935 -5.790520 -4.797359 -0.383703 0.405759 0.000000 0.000000 0.000000 -5.167274 8.465153 2.216328 -65.897822 5.844488 8.084026 -3.666750 -17.865915 -0.002978 2.333765 3.674660 0.077521 -0.064830 -0.023028 -0.000000 0.000000 0.000000 0.000000 0.000000 0.000000 0.000000 22.825742 2.563886 0.907047 70.833633 15.033384 6.430131 2.837400 25.969971 0.010853 1.429778 7.702345 0.096173 0.041451 -0.152288 0.000000 0.000000 0.000000 0.000000 0.000000 0.000000 0.000000 
-11.622816 16.896906 -2.519761 41.124606 85.947285 52.585579 -9.275620 0.804069 2.738693 -14.742975 0.294393 -35.336151 -2.760700 -0.101637 13.483554 0.371547 3.616487 5.877347 1.313400 -0.000000 -21.202800 11.248818 -3.865745 -1.120476 2.059235 -10.227282 -5.427780 0.383392 -3.046013 39.682868 0.179289 6.903338 10.026676 1.999300 0.000000 -82.747100 -5.711161 -0.701442 -2.628383 -2.199894 -0.463034 -3.694607 -7.887102 -0.635376 -0.259847 12.082434 -1.879599 -5.788916 -4.796769 -0.383848 0.404923 0.000000 0.000000 0.000000 -5.004092 8.217677 2.224750 -65.973745 5.614085 8.257782 -3.684725 -17.616830 -0.003251 2.243319 3.784102 0.076824 -0.065487 -0.021085 -0.000000 0.000000 0.000000 0.000000 0.000000 0.000000 0.000000 22.889889 2.413202 0.908575 71.101579 14.471418 6.006995 2.834173 25.532108 0.010582 1.426596 7.547765 0.093957 0.041236 -0.148470 0.000000 0.000000 0.000000 0.000000 0.000000 0.000000 0.000000 
-11.458441 16.916391 -2.526467 42.124440 85.755623 53.574300 -9.184076 0.870939 2.749549 -14.929101 0.015398 -34.907222 -2.733807 -0.078465 14.184059 0.441981 3.983943 5.117096 1.337800 -0.000000 -20.604900 11.479054 -3.757443 -1.145939 1.622329 -10.486712 -7.134070 0.050180 -3.212701 42.846123 -0.046026 6.225475 12.630392 2.172899 -0.000000 -81.127499 -5.932289 -0.773584 -2.624614 -2.241749 -0.519097 -3.693631 -7.886714 -0.692829 -0.265914 12.105923 -1.939064 -5.788011 -4.793486 -0.383735 0.404289 0.000000 0.000000 0.000000 -4.872750 7.971625 2.233662 -66.052832 5.330660 8.490477 -3.697896 -17.407211 -0.003506 2.160635 3.882248 0.075928 -0.066084 -0.018940 -0.000000 0.000000 0.000000 0.000000 0.000000 0.000000 0.000000 22.910832 2.276532 0.915358 71.348935 13.943648 5.633188 2.834522 25.099374 0.010355 1.435025 7.387371 0.092542 0.041132 -0.144765 0.000000 0.000000 0.000000 0.000000 0.000000 0.000000 0.000000 
-11.298609 16.935313 -2.534799 42.282893 85.537696 53.738631 -9.119096 0.923206 2.755101 -15.071611 -0.239091 -34.463846 -2.706141 -0.063583 14.815289 0.520817 4.365585 4.251745 1.345000 -0.000000 -20.165300 11.656930 -3.614823 -1.157203 1.314137 -10.562314 -8.871535 -0.252090 -3.352380 45.977152 -0.294251 5.274413 14.948860 2.168200 0.000000 -78.672200 -6.107259 -0.834153 -2.618887 -2.272453 -0.566831 -3.692206 -7.882277 -0.742200 -0.272388 12.106322 -1.987753 -5.786816 -4.788999 -0.383471 0.403963 0.000000 0.000000 0.000000 -4.770860 7.729841 2.243263 -66.129883 4.994939 8.782684 -3.706164 -17.238123 -0.003731 2.093326 3.963364 0.075234 -0.066602 -0.016623 -0.000000 0.000000 0.000000 0.000000 0.000000 0.000000 0.000000 22.900918 2.154047 0.926838 71.569287 13.450872 5.314350 2.838683 24.672141 0.010177 1.460406 7.225279 0.092126 0.041086 -0.141158 0.000000 0.000000 0.000000 0.000000 0.000000 0.000000 0.000000 
-11.143029 16.953943 -2.544415 41.764159 85.298750 53.231998 -9.078593 0.962658 2.749243 -15.179654 -0.444100 -33.995945 -2.679164 -0.056132 15.365618 0.604451 4.747851 3.332961 1.334000 0.000000 -19.880300 11.788348 -3.448542 -1.156444 1.124006 -10.473230 -10.613664 -0.520331 -3.473056 49.035886 -0.553673 4.037773 16.871541 1.946800 0.000000 -75.721900 -6.238324 -0.885517 -2.605262 -2.292964 -0.608372 -3.689640 -7.876067 -0.785553 -0.280999 12.089538 -2.019767 -5.782091 -4.784993 -0.383200 0.404652 0.000000 0.000000 0.000000 -4.694599 7.490474 2.254146 -66.199714 4.615951 9.128581 -3.709578 -17.112579 -0.003915 2.048213 4.022804 0.074740 -0.067023 -0.014183 -0.000000 0.000000 0.000000 0.000000 0.000000 0.000000 0.000000 22.872787 2.050675 0.942657 71.759144 12.985961 5.041502 2.846478 24.253066 0.010051 1.509544 7.064697 0.093211 0.041000 -0.137638 0.000000 0.000000 0.000000 0.000000 0.000000 0.000000 0.000000 
-10.991330 16.972636 -2.555282 40.663545 85.045506 52.140782 -9.064581 0.991225 2.726788 -15.253590 -0.569859 -33.503239 -2.653264 -0.053789 15.834910 0.688175 5.108881 2.404890 1.303700 -0.000000 -19.742400 11.875588 -3.269325 -1.145194 1.050708 -10.238117 -12.337081 -0.757120 -3.581281 51.983713 -0.815342 2.516200 18.319239 1.496300 -0.000001 -72.604200 -6.320473 -0.928906 -2.579665 -2.302781 -0.645294 -3.685298 -7.869960 -0.824313 -0.292010 12.059393 -2.035038 -5.772474 -4.782660 -0.383020 0.406704 0.000000 0.000000 0.000000 -4.645477 7.253454 2.265938 -66.257292 4.200303 9.521469 -3.707895 -17.032518 -0.004056 2.030516 4.058333 0.074650 -0.067326 -0.011655 -0.000000 0.000000 0.000000 0.000000 0.000000 0.000000 0.000000 22.835290 1.965333 0.962306 71.913329 12.547800 4.812833 2.858306 23.840047 0.009978 1.583533 6.909944 0.095696 0.040869 -0.134189 -0.000000 0.000000 0.000000 0.000000 0.000000 0.000000 0.000000 
-10.843035 16.991730 -2.566922 39.190232 84.778726 50.665949 -9.069892 1.013227 2.685468 -15.305676 -0.610681 -32.972967 -2.630047 -0.056057 16.209908 0.768927 5.444877 1.512608 1.259400 -0.000000 -19.734700 11.930674 -3.083438 -1.127092 1.068605 -9.888598 -14.023400 -0.968037 -3.682754 54.790409 -1.072777 0.745719 19.240773 0.841700 0.000000 -69.543600 -6.363824 -0.967912 -2.537596 -2.304578 -0.680402 -3.677134 -7.865587 -0.860931 -0.300702 12.024306 -2.044549 -5.762542 -4.782928 -0.382947 0.408663 0.000000 0.000000 0.000000 -4.614749 7.034042 2.277072 -66.298658 3.732857 9.966196 -3.701944 -16.985338 -0.004153 2.044092 4.068659 0.075359 -0.067554 -0.009029 -0.000000 0.000000 0.000000 0.000000 0.000000 0.000000 0.000000 22.804399 1.885160 0.983416 72.029202 12.146333 4.637345 2.873747 23.428306 0.009948 1.677801 6.763372 0.099380 0.040722 -0.130760 -0.000000 0.000000 0.000000 0.000000 0.000000 0.000000 0.000000 
-10.697751 17.011576 -2.579541 37.387513 84.507653 48.844839 -9.098911 1.030251 2.623593 -15.326022 -0.546939 -32.412618 -2.608680 -0.059911 16.501926 0.841851 5.732387 0.681788 1.201700 -0.000000 -19.838700 11.953071 -2.898170 -1.103472 1.182639 -9.444173 -15.655125 -1.159052 -3.779219 57.424852 -1.322187 -1.224236 19.620210 0.033099 0.000000 -66.651099 -6.357295 -1.002832 -2.477965 -2.296548 -0.714820 -3.666271 -7.864030 -0.896591 -0.311977 11.983570 -2.040556 -5.745518 -4.786416 -0.383098 0.412542 0.000000 0.000000 0.000000 -4.606525 6.812626 2.288600 -66.321815 3.242991 10.437612 -3.691424 -16.982861 -0.004215 2.089470 4.055429 0.076672 -0.067677 -0.006361 -0.000000 0.000000 0.000000 0.000000 0.000000 0.000000 0.000000 22.778951 1.816530 1.006729 72.106776 11.766246 4.489581 2.892859 23.019442 0.009954 1.791727 6.627961 0.104066 0.040536 -0.127367 -0.000000 0.000000 0.000000 0.000000 0.000000 0.000000 0.000000 
-10.554990 17.032406 -2.592754 35.428526 84.236423 46.846827 -9.144822 1.045737 2.542774 -15.320964 -0.389993 -31.812923 -2.589821 -0.065062 16.705372 0.905075 5.972264 -0.063613 1.137300 0.000000 -20.028100 11.952659 -2.716069 -1.077752 1.370037 -8.935894 -17.220148 -1.334449 -3.872092 59.862772 -1.560161 -3.307406 19.466340 -0.850300 0.000001 -63.933900 -6.309051 -1.037267 -2.399156 -2.280726 -0.751502 -3.651496 -7.865782 -0.933987 -0.322294 11.942152 -2.029457 -5.724357 -4.793130 -0.383440 0.417417 0.000000 0.000000 0.000000 -4.612300 6.601206 2.299828 -66.326639 2.717026 10.938757 -3.677501 -17.011617 -0.004251 2.165182 4.021488 0.078683 -0.067765 -0.003605 -0.000000 0.000000 0.000000 0.000000 0.000000 0.000000 0.000000 22.765866 1.751235 1.029686 72.148113 11.407831 4.358698 2.914791 22.614682 0.009985 1.920124 6.502255 0.109550 0.040322 -0.123970 -0.000000 0.000000 0.000000 0.000000 0.000000 0.000000 0.000000 
